<svg width="55" height="43" viewBox="0 0 55 43" fill="none" xmlns="http://www.w3.org/2000/svg">
<g clip-path="url(#clip0_1_3)">
<path d="M29.5394 15.4143H29.3696L26.4836 21.9653L18.7875 37.8291L11.2612 22.0295L8.26197 14.9647H8.0922V44.8298H0V0H9.1108L18.7875 21.0019H18.9007L28.4642 0H37.6316V44.8298H29.5394V15.4143Z" fill="url(#paint0_linear_1_3)"/>
<path d="M40.3965 43C37.1091 43 34.3409 42.64 32.0887 41.9201C29.8398 41.1703 27.8278 40.1203 26.0526 38.7705L31.6993 34.8109C32.913 35.7408 34.2533 36.4758 35.7234 37.0157C37.1967 37.5556 38.8615 37.8256 40.721 37.8256C42.626 37.8256 43.9468 37.6305 44.6802 37.2407C45.4169 36.8206 45.7836 36.2659 45.7836 35.5759C45.7836 34.4661 44.638 33.806 42.3436 33.5961L38.6441 33.2811C30.9854 32.6213 27.156 30.1916 27.156 25.992C27.156 24.852 27.4611 23.8172 28.0647 22.8873C28.7137 21.9274 29.6029 21.1175 30.7258 20.4576C31.894 19.7676 33.2797 19.2428 34.8796 18.8828C36.525 18.4929 38.365 18.2979 40.3965 18.2979C42.1716 18.2979 43.7293 18.3879 45.0696 18.5678C46.4553 18.7179 47.6658 18.9577 48.7043 19.2878C49.7882 19.5876 50.7617 19.9777 51.625 20.4576C52.5336 20.9076 53.4228 21.4176 54.286 21.9874L48.7692 25.902C47.6885 25.1521 46.4553 24.5672 45.0696 24.1472C43.7293 23.6972 42.3436 23.4723 40.9157 23.4723C39.2737 23.4723 38.1054 23.6522 37.4109 24.0122C36.7197 24.3722 36.3724 24.852 36.3724 25.452C36.3724 26.082 36.6126 26.5769 37.0864 26.9369C37.6056 27.2669 38.5597 27.5067 39.9422 27.6568L43.7715 28.0167C51.2582 28.7067 55 31.0764 55 35.1259C55 36.2659 54.656 37.3156 53.9615 38.2755C53.2703 39.2355 52.274 40.0753 50.9759 40.7953C49.7233 41.4852 48.185 42.0252 46.3677 42.4151C44.5958 42.8049 42.6033 43 40.3965 43Z" fill="url(#paint1_linear_1_3)"/>
</g>
<defs>
<linearGradient id="paint0_linear_1_3" x1="-4.35732" y1="62.8934" x2="273.282" y2="62.8934" gradientUnits="userSpaceOnUse">
<stop stop-color="#0B0D0D"/>
<stop offset="1" stop-color="#4529E6"/>
</linearGradient>
<linearGradient id="paint1_linear_1_3" x1="-335.549" y1="62.7077" x2="173.95" y2="62.7077" gradientUnits="userSpaceOnUse">
<stop stop-color="#0B0D0D"/>
<stop offset="1" stop-color="#4529E6"/>
</linearGradient>
<clipPath id="clip0_1_3">
<rect width="55" height="43" fill="white"/>
</clipPath>
</defs>
</svg>
